<svg width="36" height="37" viewBox="0 0 36 37" fill="none" xmlns="http://www.w3.org/2000/svg">
<path fill-rule="evenodd" clip-rule="evenodd" d="M15.5088 0.53717C16.3516 1.01981 17.1696 1.5433 17.9628 2.10769C21.1852 0.0785604 23.8355 0.667504 25.9135 3.87452C27.058 3.28877 28.2359 3.15789 29.4471 3.48189C29.164 3.74092 29.0333 4.06812 29.0545 4.46346C28.6165 4.24284 28.1585 4.14468 27.6803 4.16899C27.901 4.21791 28.0973 4.31607 28.2692 4.46346C28.1593 4.92552 28.0284 5.38358 27.8766 5.83766C27.7408 5.73454 27.6426 5.60367 27.5821 5.44503C27.3668 5.74983 27.1051 6.01159 26.7969 6.23029C26.7021 6.04418 26.6695 5.84787 26.6987 5.64134C26.5024 5.64134 26.3061 5.64134 26.1098 5.64134C26.0576 6.4472 26.1557 7.23245 26.4043 7.99712C26.7317 7.46511 26.8952 7.49783 26.895 8.09527C26.8415 8.51753 26.7107 8.91016 26.5024 9.27316C26.6987 9.33859 26.895 9.40404 27.0914 9.46948C26.293 9.5396 25.835 9.96495 25.7172 10.7455C24.903 10.8765 24.1178 11.0073 23.3614 11.1381C22.3535 11.231 21.3719 11.4928 20.4167 11.9234C19.9921 11.7332 19.534 11.5696 19.0425 11.4326C19.1522 11.2903 19.2176 11.1267 19.2388 10.9418C19.0918 10.6404 18.8954 10.3786 18.6499 10.1566C18.9844 8.98175 18.5262 8.32738 17.2757 8.19343C17.2244 7.64593 17.159 7.08971 17.0793 6.52476C17.3367 6.53536 17.533 6.33905 17.6683 5.93582C17.6029 5.83766 17.5373 5.7395 17.472 5.64134C17.0591 6.10855 16.83 5.97767 16.7849 5.24872C16.4692 5.56274 16.1093 5.82451 15.7051 6.03397C15.4603 6.3297 15.4603 6.62417 15.7051 6.91739C15.4494 7.51497 14.9913 7.74401 14.3309 7.60449C14.3739 7.83516 14.3085 8.03147 14.1346 8.19343C13.359 7.95516 12.5737 7.75885 11.7789 7.60449C11.1402 8.16161 10.9439 8.03073 11.1899 7.21186C11.3208 7.27729 11.4517 7.34274 11.5825 7.40817C11.9845 7.11072 12.4425 6.94713 12.9567 6.91739C12.695 6.78651 12.695 6.65564 12.9567 6.52476C13.2314 6.40803 13.4931 6.44076 13.742 6.62292C13.9814 6.47305 14.1777 6.27674 14.3309 6.03397C14.4669 6.1371 14.565 6.26796 14.6254 6.4266C14.958 5.99801 14.9907 5.53995 14.7236 5.0524C13.9673 5.17484 13.2475 5.01125 12.5641 4.56162C13.2575 4.2035 13.4538 3.68001 13.1531 2.9911C13.2581 2.57713 13.4545 2.47897 13.742 2.69663C13.9383 2.6312 14.0692 2.50031 14.1346 2.304C13.8732 1.70391 13.4805 1.24585 12.9567 0.929799C13.7889 0.726692 14.6396 0.595829 15.5088 0.53717Z" fill="#2D2D2D"/>
<path fill-rule="evenodd" clip-rule="evenodd" d="M12.7604 0.92981C12.8259 0.92981 12.8913 0.92981 12.9567 0.92981C13.4805 1.24586 13.8732 1.70392 14.1346 2.30401C14.0692 2.50032 13.9383 2.63121 13.742 2.69664C13.4545 2.47899 13.2581 2.57714 13.1531 2.99111C13.4538 3.68002 13.2575 4.20351 12.5641 4.56163C13.2475 5.01126 13.9673 5.17485 14.7236 5.05241C14.9907 5.53996 14.958 5.99802 14.6254 6.42661C14.565 6.26797 14.4669 6.13711 14.3309 6.03398C14.1777 6.27675 13.9814 6.47306 13.742 6.62293C13.4931 6.44077 13.2314 6.40804 12.9567 6.52477C12.695 6.65565 12.695 6.78652 12.9567 6.9174C12.4425 6.94714 11.9845 7.11073 11.5825 7.40818C11.4517 7.34275 11.3208 7.2773 11.1899 7.21187C10.9439 8.03074 11.1402 8.16162 11.7789 7.6045C12.5737 7.75886 13.359 7.95518 14.1346 8.19344C14.3085 8.03148 14.3739 7.83517 14.3309 7.6045C14.9913 7.74402 15.4494 7.51498 15.7051 6.9174C15.4603 6.62418 15.4603 6.32971 15.7051 6.03398C16.1094 5.82452 16.4692 5.56275 16.7849 5.24873C16.83 5.97768 17.0591 6.10856 17.472 5.64136C17.5373 5.73951 17.6029 5.83767 17.6683 5.93583C17.533 6.33906 17.3367 6.53537 17.0793 6.52477C17.159 7.08972 17.2244 7.64594 17.2757 8.19344C17.1479 8.30939 17.0169 8.44027 16.883 8.58607C16.6196 8.31078 16.4558 8.37623 16.3922 8.78239C16.3269 8.71695 16.2613 8.6515 16.1959 8.58607C15.7677 9.15046 15.375 9.7394 15.018 10.3529C14.9233 10.1668 14.8905 9.97048 14.9199 9.76396C14.5972 9.72204 14.3027 9.78748 14.0365 9.96027C13.9796 9.65714 13.8487 9.3954 13.6438 9.17501C13.3857 9.5315 13.0912 9.85868 12.7604 10.1566C12.4917 9.83777 12.1645 9.73961 11.7789 9.86211C11.9097 9.92755 12.0406 9.993 12.1715 10.0584C11.8536 10.1047 11.6573 10.2683 11.5825 10.5492C10.0245 10.8566 8.51937 11.3146 7.06731 11.9234C6.91222 11.7058 6.81407 11.444 6.77284 11.1382C6.60077 11.7441 6.24087 12.2022 5.69311 12.5124C5.3401 13.0599 5.24194 13.6489 5.39864 14.2792C6.35785 15.1513 6.9795 16.133 7.26363 17.2239C6.72437 17.1625 6.20088 17.2278 5.69311 17.4202C5.40844 17.6852 5.27755 18.0123 5.30048 18.4018C5.76027 18.4026 6.1529 18.5661 6.47837 18.8926C6.27244 18.9892 6.07612 18.9566 5.88943 18.7944C5.65729 19.2155 5.36281 19.2155 5.00601 18.7944C4.80291 19.4126 4.93379 19.9362 5.39864 20.3649C5.47375 20.2558 5.57191 20.1904 5.69311 20.1686C5.69311 20.4959 5.69311 20.8229 5.69311 21.1502C4.90972 21.0175 4.58254 21.3445 4.71154 22.1318C4.74892 23.0444 4.94523 23.11 5.30048 22.3281C5.36592 22.4916 5.43137 22.6553 5.4968 22.8189C5.39756 23.4545 5.33213 24.1088 5.30048 24.782C5.38007 24.9675 5.51093 25.0985 5.69311 25.1746C5.1492 25.0994 4.62569 25.0669 4.1226 25.0765C4.04784 24.5971 4.17873 24.4661 4.51523 24.6839C4.90417 24.5651 4.96962 24.3688 4.71154 24.0949C4.08512 23.8156 3.43075 23.6192 2.7484 23.506C2.57533 23.7533 2.37901 23.9822 2.15946 24.1931C3.6966 24.1244 3.6966 24.4188 2.15946 25.0765C2.70698 25.2461 3.16506 25.5406 3.53366 25.9599C3.0669 26.1511 3.13233 26.282 3.72997 26.3525C3.23328 26.4269 2.7752 26.5907 2.35577 26.8433C2.40509 26.5155 2.53595 26.221 2.7484 25.9599C1.49798 25.1371 0.581836 24.0574 0 22.7207C0.0352188 22.1924 0.231533 21.7342 0.588943 21.3465C0.395632 21.0328 0.362907 20.7055 0.490786 20.3649C0.979804 19.8115 1.33971 19.1898 1.57051 18.4999C1.18362 17.5624 0.823695 16.6136 0.490786 15.6534C0.277883 13.8863 0.899551 12.4794 2.35577 11.4326C1.51939 10.2544 1.35581 8.97839 1.86499 7.6045C2.72641 6.34716 3.93702 5.82367 5.4968 6.03398C5.47098 5.30358 5.6673 4.6492 6.08574 4.07084C6.33958 3.80739 6.50318 3.48019 6.57653 3.08927C7.78724 2.18756 9.096 2.05667 10.5028 2.69664C11.2324 2.06362 11.985 1.47468 12.7604 0.92981Z" fill="#2D2D2D"/>
<path fill-rule="evenodd" clip-rule="evenodd" d="M29.4471 3.48193C29.7012 3.637 29.9303 3.83332 30.1342 4.07088C30.3514 4.79881 30.5805 5.51862 30.8213 6.23034C30.5404 6.1556 30.3769 5.95928 30.3306 5.64139C30.1309 6.13768 29.9018 6.13768 29.6435 5.64139C29.1862 5.89087 28.9573 6.2835 28.9564 6.81928C28.828 6.58456 28.7298 6.58456 28.6619 6.81928C28.9147 7.31664 28.9147 7.80743 28.6619 8.29164C28.975 8.17049 29.2367 8.23594 29.4471 8.48795C29.189 8.76173 29.2546 8.95805 29.6435 9.07689C29.5125 9.14233 29.3818 9.20778 29.2508 9.27321C29.5663 9.47914 29.697 9.77361 29.6435 10.1566C29.8398 10.1566 30.0361 10.1566 30.2324 10.1566C29.9615 10.7743 29.7652 11.4287 29.6435 12.1198C29.6572 12.3694 29.7226 12.5984 29.8398 12.8069C29.5936 13.2657 29.3319 13.691 29.0545 14.0829C29.253 13.7094 29.2858 13.3168 29.1527 12.905C28.3509 12.3895 27.5331 11.8988 26.6987 11.4327C25.6049 11.1675 24.4926 11.0693 23.3614 11.1382C24.1178 11.0074 24.9031 10.8765 25.7172 10.7456C25.835 9.965 26.293 9.53965 27.0914 9.46952C26.8951 9.40409 26.6987 9.33864 26.5024 9.27321C26.7107 8.9102 26.8415 8.51757 26.8951 8.09532C26.8952 7.49788 26.7317 7.46515 26.4043 7.99717C26.1557 7.2325 26.0576 6.44724 26.1098 5.64139C26.3061 5.64139 26.5024 5.64139 26.6987 5.64139C26.6695 5.84791 26.7021 6.04423 26.7969 6.23034C27.1051 6.01164 27.3668 5.74988 27.5822 5.44508C27.6426 5.60372 27.7408 5.73458 27.8766 5.83771C28.0284 5.38363 28.1593 4.92557 28.2693 4.46351C28.0973 4.31611 27.901 4.21796 27.6803 4.16903C28.1585 4.14473 28.6165 4.24289 29.0545 4.46351C29.0333 4.06817 29.1641 3.74097 29.4471 3.48193Z" fill="#2D2D2D"/>
<path fill-rule="evenodd" clip-rule="evenodd" d="M17.2756 8.19342C18.5262 8.32737 18.9844 8.98174 18.6498 10.1566C18.8954 10.3786 19.0918 10.6404 19.2388 10.9418C19.2176 11.1267 19.1522 11.2903 19.0425 11.4326C19.534 11.5696 19.992 11.7331 20.4167 11.9234C20.0943 12.1792 19.7671 12.4409 19.4351 12.7087C19.2274 12.4927 19.0637 12.2309 18.9443 11.9234C18.7566 12.1351 18.5931 12.3642 18.4535 12.6105C18.7152 12.8068 18.7152 13.0031 18.4535 13.1994C17.9353 13.3641 17.4773 13.266 17.0793 12.905C16.8243 13.0208 16.6608 13.2171 16.5885 13.4939C16.5134 13.3848 16.4152 13.3193 16.2941 13.2976C15.212 11.5776 13.6414 10.6614 11.5825 10.5492C11.6573 10.2682 11.8536 10.1046 12.1715 10.0584C12.0406 9.99298 11.9097 9.92752 11.7788 9.86209C12.1645 9.73959 12.4917 9.83775 12.7604 10.1566C13.0912 9.85866 13.3857 9.53148 13.6438 9.17499C13.8487 9.39538 13.9796 9.65712 14.0365 9.96025C14.3027 9.78745 14.5972 9.72202 14.9199 9.76394C14.8905 9.97046 14.9233 10.1668 15.018 10.3529C15.375 9.73938 15.7677 9.15043 16.1959 8.58605C16.2613 8.65148 16.3269 8.71693 16.3922 8.78236C16.4558 8.37621 16.6196 8.31076 16.883 8.58605C17.0169 8.44025 17.1478 8.30936 17.2756 8.19342Z" fill="#2D2D2D"/>
<path fill-rule="evenodd" clip-rule="evenodd" d="M23.3614 11.1382C24.4925 11.0693 25.6049 11.1675 26.6987 11.4326C27.5331 11.8987 28.3509 12.3895 29.1527 12.905C29.2858 13.3168 29.253 13.7094 29.0545 14.0829C28.5058 14.5249 28.0478 15.0484 27.6803 15.6534C27.0507 15.7867 26.4618 16.0158 25.9135 16.3405C24.6702 16.4714 23.4268 16.4714 22.1835 16.3405C21.7856 15.9716 21.3276 15.7425 20.8093 15.6534C20.2861 15.0969 19.7953 14.508 19.3369 13.8866C19.2038 13.4748 19.2366 13.0822 19.4351 12.7087C19.7671 12.441 20.0943 12.1792 20.4167 11.9234C21.3719 11.4928 22.3535 11.231 23.3614 11.1382Z" fill="#E7E7E7"/>
<path fill-rule="evenodd" clip-rule="evenodd" d="M24.343 11.7271C25.695 11.4887 26.7091 11.9468 27.3858 13.1013C27.4443 14.9407 26.5609 15.7586 24.7356 15.5552C24.1926 15.2672 23.7018 14.9073 23.2632 14.4755C23.2363 13.4155 23.5962 12.4994 24.343 11.7271Z" fill="#2D2D2D"/>
<path fill-rule="evenodd" clip-rule="evenodd" d="M19.4351 12.7087C19.2366 13.0821 19.2038 13.4748 19.3369 13.8865C19.7953 14.5079 20.2861 15.0969 20.8093 15.6534C20.4895 15.9596 20.2604 15.8943 20.1222 15.4571C19.7991 15.7623 19.7337 16.0894 19.9259 16.4386C19.8605 16.3733 19.7949 16.3077 19.7296 16.2423C19.6691 16.4009 19.5709 16.5319 19.4351 16.6349C19.207 16.1787 18.9779 15.7205 18.748 15.2607C18.6826 15.4571 18.6171 15.6534 18.5517 15.8497C18.4783 15.3789 18.4783 14.9209 18.5517 14.4755C17.7539 15.2548 16.9686 15.2548 16.1959 14.4755C16.0188 14.5232 15.8553 14.5887 15.7051 14.6718C15.9521 14.2425 16.1484 13.7844 16.2941 13.2976C16.4152 13.3193 16.5133 13.3848 16.5885 13.4939C16.6608 13.2171 16.8243 13.0208 17.0793 12.905C17.4773 13.266 17.9353 13.3642 18.4535 13.1994C18.7152 13.0031 18.7152 12.8068 18.4535 12.6105C18.5931 12.3642 18.7566 12.1351 18.9443 11.9234C19.0637 12.2309 19.2274 12.4927 19.4351 12.7087Z" fill="#2D2D2D"/>
<path fill-rule="evenodd" clip-rule="evenodd" d="M11.5825 10.5492C13.6414 10.6614 15.212 11.5776 16.2941 13.2976C16.1484 13.7844 15.9521 14.2425 15.7051 14.6718C15.0225 15.3721 14.3027 16.0264 13.5457 16.6349C12.9334 16.9394 12.279 17.1357 11.5825 17.2239C10.9131 17.2323 10.2588 17.1342 9.6194 16.9294C9.05431 16.4612 8.46536 16.0358 7.85257 15.6534C6.74157 15.0413 6.18535 14.1251 6.1839 12.905C6.51907 12.6031 6.81354 12.276 7.06731 11.9234C8.51937 11.3146 10.0245 10.8566 11.5825 10.5492Z" fill="#E7E7E7"/>
<path fill-rule="evenodd" clip-rule="evenodd" d="M11.1899 11.7271C13.2497 11.3999 14.1985 12.2506 14.0365 14.2792C13.4946 15.4172 12.6112 15.8424 11.3862 15.5552C9.63687 14.3438 9.57144 13.0677 11.1899 11.7271Z" fill="#2D2D2D"/>
<path fill-rule="evenodd" clip-rule="evenodd" d="M7.06732 11.9234C6.81354 12.2759 6.51907 12.6031 6.1839 12.905C6.18536 14.1251 6.74157 15.0413 7.85258 15.6534C7.73118 16.1506 7.7639 16.674 7.95073 17.2239C8.56969 17.3193 8.92961 17.6793 9.03046 18.3036C8.75914 18.8415 8.43194 19.3323 8.04889 19.776C7.85933 19.4037 7.7939 19.0111 7.85258 18.5981C7.65626 18.5981 7.45995 18.5981 7.26363 18.5981C7.29546 18.996 7.26275 19.3886 7.16548 19.776C7.01255 19.5349 6.81623 19.3386 6.57653 19.187C6.32129 19.424 6.02681 19.5549 5.69312 19.5796C5.69312 19.776 5.69312 19.9723 5.69312 20.1686C5.57191 20.1904 5.47376 20.2557 5.39865 20.3649C4.9338 19.9361 4.80291 19.4126 5.00602 18.7944C5.36282 19.2155 5.65729 19.2155 5.88943 18.7944C6.07613 18.9565 6.27244 18.9891 6.47838 18.8925C6.15291 18.5661 5.76028 18.4025 5.30049 18.4018C5.27756 18.0123 5.40844 17.6852 5.69312 17.4202C6.20089 17.2278 6.72438 17.1624 7.26363 17.2239C6.97951 16.1329 6.35786 15.1513 5.39865 14.2792C5.24195 13.6488 5.34011 13.0599 5.69312 12.5123C6.24088 12.2022 6.60078 11.7441 6.77285 11.1381C6.81407 11.444 6.91223 11.7058 7.06732 11.9234Z" fill="#2D2D2D"/>
<path fill-rule="evenodd" clip-rule="evenodd" d="M15.7052 14.6718C15.6883 14.8673 15.7538 15.0309 15.9015 15.1626C15.6949 15.3823 15.4659 15.4804 15.2144 15.4571C14.9321 15.7319 14.7685 16.0592 14.7236 16.4386C15.113 16.4157 15.4402 16.5466 15.7052 16.8313C16.1555 16.5945 16.6135 16.3982 17.0794 16.2423C17.3619 16.9987 17.2965 17.7184 16.883 18.4018C17.014 18.6635 17.1447 18.9254 17.2757 19.187C17.0309 19.4898 17.0309 19.7842 17.2757 20.0705C16.7531 19.9103 16.3605 19.5504 16.0978 18.9907C16.4001 18.7881 16.4983 18.5264 16.3923 18.2055C16.0632 18.3156 15.8015 18.5119 15.607 18.7944C15.4661 18.6077 15.3025 18.5751 15.1162 18.6963C15.1347 18.9754 15.2002 19.2699 15.3125 19.5797C15.4434 19.5143 15.5743 19.4487 15.7052 19.3834C16.0823 19.6217 16.4095 19.9162 16.6867 20.2668C16.4354 20.6853 16.4354 21.1105 16.6867 21.5428C16.0303 21.7896 15.376 21.7896 14.7236 21.5428C14.5762 21.7148 14.478 21.9111 14.4291 22.1318C14.2943 21.7258 14.327 21.3332 14.5273 20.9539C14.272 20.6494 13.9448 20.4531 13.5457 20.3649C13.7675 20.0086 13.8984 19.616 13.9383 19.187C13.6766 19.187 13.4148 19.187 13.1531 19.187C13.1283 18.8533 12.9975 18.5588 12.7604 18.3036C12.7889 18.1521 12.8543 18.0211 12.9568 17.911C12.6457 17.8943 12.3839 17.8617 12.1715 17.8128C12.8161 17.3272 13.4705 17.3272 14.1346 17.8128C14.0936 17.9279 14.0281 18.026 13.9383 18.1073C14.2836 18.264 14.6108 18.2312 14.9199 18.0092C14.5083 17.4667 14.0503 17.0085 13.5457 16.635C14.3027 16.0264 15.0225 15.3721 15.7052 14.6718Z" fill="#2D2D2D"/>
<path fill-rule="evenodd" clip-rule="evenodd" d="M13.5457 16.6349C14.0503 17.0085 14.5083 17.4667 14.9199 18.0091C14.6108 18.2312 14.2836 18.264 13.9383 18.1073C14.0281 18.026 14.0936 17.9279 14.1346 17.8128C13.4705 17.3272 12.8161 17.3272 12.1715 17.8128C12.3839 17.8617 12.6457 17.8943 12.9568 17.911C12.8543 18.0211 12.7889 18.1521 12.7604 18.3036C12.9975 18.5588 13.1283 18.8533 13.1531 19.187C13.4148 19.187 13.6766 19.187 13.9383 19.187C13.8984 19.616 13.7675 20.0086 13.5457 20.3649C13.2937 19.8512 12.901 19.4585 12.3678 19.187C11.9393 17.4098 11.6448 17.4098 11.4844 19.187C10.6342 19.9713 10.6015 20.8221 11.3862 21.7391C10.919 22.5173 10.7227 23.3679 10.7973 24.2912C10.5072 24.2398 10.2454 24.3051 10.012 24.4875C10.3044 24.494 10.5661 24.5922 10.7973 24.782C10.6112 24.8768 10.4149 24.9094 10.2084 24.8802C10.2738 25.2728 10.3392 25.6654 10.4047 26.058C9.89245 26.2204 9.49982 26.5475 9.22679 27.0396C9.65832 28.1301 10.4436 28.6535 11.5826 28.6101C11.5826 28.8718 11.5826 29.1337 11.5826 29.3954C11.0092 29.4649 10.5511 29.2686 10.2084 28.8064C9.78999 29.3355 9.39736 29.8917 9.03047 30.4751C8.60166 30.4989 8.20903 30.4007 7.85259 30.1806C7.82027 29.5882 7.85298 28.9992 7.95074 28.4138C8.01113 28.2552 8.10929 28.1242 8.24521 28.0212C8.25171 28.3135 8.34987 28.5752 8.53969 28.8064C8.60044 28.5579 8.6986 28.3288 8.83416 28.1193C8.58939 27.8331 8.58939 27.5386 8.83416 27.2359C8.54053 26.6807 8.08247 26.3537 7.45996 26.2544C7.39453 26.3525 7.32907 26.4507 7.26364 26.5488C7.59755 26.914 7.79387 27.3394 7.85259 27.8249C7.59084 27.8249 7.32907 27.8249 7.06733 27.8249C7.12183 27.2772 6.99094 26.7864 6.6747 26.3525C6.94654 26.039 7.07742 25.6792 7.06733 25.2728C7.298 25.3158 7.49431 25.2504 7.65627 25.0765C7.8508 24.7186 8.11256 24.4241 8.44153 24.1931C8.18765 24.0969 7.92589 24.0641 7.65627 24.0949C7.68562 24.3014 7.65289 24.4977 7.55811 24.6838C7.46567 24.3411 7.33479 24.0138 7.16549 23.7023C6.95945 23.9019 6.73043 23.9347 6.47839 23.8004C6.59802 23.418 6.72888 23.058 6.87101 22.7207C7.00278 22.9851 7.00278 23.2142 6.87101 23.4078C7.39453 23.5387 7.91802 23.5387 8.44153 23.4078C8.02642 23.3246 7.86281 23.0955 7.95074 22.7207C8.35138 22.9019 8.77673 22.9673 9.22679 22.917C9.19335 22.3298 9.4551 21.9372 10.012 21.7391C9.73485 21.0713 9.53853 20.3842 9.4231 19.6778C9.61119 19.4526 9.54574 19.2563 9.22679 19.0889C9.32494 19.0561 9.4231 19.0235 9.52126 18.9907C9.78991 19.2269 10.0844 19.4232 10.4047 19.5797C10.5659 19.0011 10.6641 18.4122 10.6991 17.8128C11.0678 17.7043 11.3623 17.508 11.5826 17.2239C12.279 17.1357 12.9334 16.9394 13.5457 16.6349Z" fill="#2D2D2D"/>
<path fill-rule="evenodd" clip-rule="evenodd" d="M7.85257 15.6534C8.46537 16.0358 9.05431 16.4612 9.6194 16.9294C10.2588 17.1342 10.9131 17.2323 11.5825 17.2239C11.3622 17.508 11.0678 17.7043 10.6991 17.8128C10.6641 18.4122 10.5659 19.0011 10.4047 19.5797C10.0844 19.4232 9.7899 19.2269 9.52124 18.9907C9.42309 19.0235 9.32493 19.0561 9.22677 19.0889C9.54572 19.2563 9.61117 19.4527 9.42309 19.6778C9.53852 20.3842 9.73483 21.0713 10.012 21.7391C9.45509 21.9372 9.19334 22.3298 9.22677 22.917C8.77672 22.9673 8.35137 22.9019 7.95073 22.7207C7.8628 23.0955 8.02641 23.3246 8.44151 23.4078C7.918 23.5387 7.39451 23.5387 6.871 23.4078C7.00277 23.2142 7.00277 22.9851 6.871 22.7207C7.12097 22.6074 7.12097 22.4767 6.871 22.3281C6.62832 22.1816 6.36657 22.1162 6.08574 22.1318C5.88491 21.5638 5.88491 21.0077 6.08574 20.4631C5.97891 20.3223 5.84803 20.2242 5.69312 20.1686C5.69312 19.9723 5.69312 19.776 5.69312 19.5797C6.02681 19.5549 6.32128 19.424 6.57653 19.187C6.81623 19.3386 7.01254 19.5349 7.16547 19.776C7.26275 19.3887 7.29545 18.996 7.26363 18.5981C7.45994 18.5981 7.65626 18.5981 7.85257 18.5981C7.79389 19.0111 7.85933 19.4038 8.04889 19.776C8.43193 19.3323 8.75913 18.8415 9.03046 18.3036C8.92961 17.6793 8.56969 17.3193 7.95073 17.2239C7.7639 16.674 7.73117 16.1506 7.85257 15.6534Z" fill="#2D2D2D"/>
<path fill-rule="evenodd" clip-rule="evenodd" d="M15.7051 23.8986C15.4706 23.9335 15.2415 23.9989 15.018 24.0949C14.6747 24.0462 14.5111 23.8499 14.5272 23.5059C14.5428 23.2252 14.4773 22.9633 14.3309 22.7207C15.1033 22.4142 15.2342 22.545 14.7236 23.1133C14.789 23.1787 14.8544 23.2443 14.9199 23.3096C15.3125 22.9824 15.7051 22.6553 16.0978 22.3281C16.2835 22.4237 16.4798 22.489 16.6867 22.5244C17.2197 22.1673 17.8086 21.971 18.4535 21.9354C18.5093 21.3948 18.6402 20.8714 18.8462 20.3649C18.9612 20.4059 19.0594 20.4715 19.1406 20.5612C19.2229 20.3312 19.3536 20.1348 19.5333 19.9723C19.5896 20.4417 19.6878 20.8997 19.8277 21.3465C19.5254 21.5491 19.4272 21.8108 19.5333 22.1317C19.6163 21.8459 19.7798 21.7478 20.024 21.8373C19.5176 22.3872 18.9286 22.6488 18.2572 22.6225C18.6964 22.9873 19.0562 23.4125 19.3369 23.8986C19.4192 23.6685 19.5499 23.4722 19.7296 23.3096C19.6711 23.8744 19.7037 24.4306 19.8277 24.9783C19.7949 25.0765 19.7624 25.1746 19.7296 25.2728C19.5299 24.9045 19.3662 24.5119 19.2388 24.0949C18.9771 23.964 18.7152 23.8332 18.4535 23.7023C18.2796 23.8642 18.2142 24.0605 18.2572 24.2912C17.8742 24.3448 17.5797 24.2141 17.3738 23.8986C16.819 24.4041 16.2629 24.4041 15.7051 23.8986Z" fill="#2D2D2D"/>
<path fill-rule="evenodd" clip-rule="evenodd" d="M29.0545 14.0829C29.1291 15.0199 29.1947 15.9687 29.2508 16.9294C28.7475 17.3763 28.813 17.7689 29.4471 18.1073C29.2294 18.2326 29.0005 18.3307 28.76 18.4018C28.6474 18.2341 28.5164 18.0378 28.3674 17.8129C28.1379 17.9128 27.9744 18.0763 27.8766 18.3036C28.0674 18.7391 28.1984 19.1971 28.2693 19.6778C28.0498 20.0821 27.9188 20.5075 27.8766 20.9539C28.0729 20.9539 28.2693 20.9539 28.4656 20.9539C28.486 21.7694 28.5514 22.5874 28.6619 23.4078C28.3052 23.9102 27.9781 24.4338 27.6803 24.9783C28.1766 25.2367 28.1766 25.4658 27.6803 25.6654C26.9973 25.6807 26.3102 25.6154 25.619 25.4691C25.4881 25.6001 25.3573 25.7308 25.2264 25.8617C25.288 25.2638 25.2552 24.6748 25.1282 24.0949C24.8628 24.2948 24.6665 24.5565 24.5393 24.8802C24.4083 25.4037 24.2776 25.9271 24.1467 26.4507C23.9121 26.8035 23.5848 26.9998 23.1651 27.0396C23.0489 26.5239 22.9835 26.0003 22.9688 25.4691C22.6786 25.5206 22.4169 25.4552 22.1835 25.2728C22.2489 25.0765 22.3798 24.9455 22.5761 24.8802C22.8796 25.1126 23.2069 25.3089 23.5577 25.4691C23.0271 26.18 23.0924 26.3109 23.754 25.8617C24.0387 26.3802 24.1696 26.3148 24.1467 25.6654C24.1056 25.3721 23.9747 25.143 23.754 24.9783C23.9183 24.7799 23.9837 24.5508 23.9503 24.2912C23.7438 24.3205 23.5475 24.2879 23.3614 24.1931C23.8194 24.1277 24.2776 24.0621 24.7356 23.9968C24.9549 23.6253 25.2821 23.4618 25.7172 23.506C25.6701 22.9015 25.7354 22.3126 25.9135 21.7391C25.7825 21.6738 25.6518 21.6082 25.5209 21.5428C25.6269 21.2978 25.7578 21.0687 25.9135 20.8557C25.7272 20.7346 25.5636 20.7672 25.4227 20.9539C25.3658 20.6508 25.235 20.3891 25.0301 20.1686C24.8775 20.6007 24.6484 20.6007 24.343 20.1686C25.1569 19.4546 26.0075 18.7675 26.8951 18.1073C27.4047 17.8843 27.9283 17.7208 28.4656 17.6165C28.4322 17.357 28.4976 17.1279 28.6619 16.9294C28.3411 16.8325 28.0138 16.7999 27.6803 16.8313C27.6102 17.5959 27.2176 17.7922 26.5024 17.4202C26.7788 17.2744 27.0405 17.1106 27.2877 16.9294C27.198 16.8482 27.1324 16.75 27.0914 16.635C27.2406 16.2698 27.4369 15.9426 27.6803 15.6534C28.0478 15.0484 28.5058 14.5249 29.0545 14.0829Z" fill="#2D2D2D"/>
<path fill-rule="evenodd" clip-rule="evenodd" d="M20.8093 15.6534C21.3276 15.7425 21.7856 15.9716 22.1835 16.3405C23.4268 16.4714 24.6702 16.4714 25.9135 16.3405C26.4618 16.0157 27.0507 15.7866 27.6803 15.6534C27.4369 15.9425 27.2406 16.2698 27.0914 16.6349C27.1324 16.75 27.198 16.8481 27.2877 16.9294C27.0405 17.1106 26.7788 17.2743 26.5024 17.4202C27.2176 17.7922 27.6102 17.5959 27.6803 16.8312C28.0139 16.7998 28.3411 16.8324 28.6619 16.9294C28.4976 17.1279 28.4322 17.357 28.4656 17.6165C27.9283 17.7207 27.4047 17.8843 26.8951 18.1073C26.0075 18.7675 25.1569 19.4546 24.343 20.1686C24.6484 20.6007 24.8775 20.6007 25.0301 20.1686C25.235 20.389 25.3658 20.6507 25.4227 20.9538C25.5637 20.7671 25.7272 20.7346 25.9135 20.8557C25.7578 21.0687 25.6269 21.2978 25.5209 21.5428C25.6518 21.6082 25.7825 21.6737 25.9135 21.7391C25.7354 22.3125 25.6701 22.9015 25.7172 23.5059C25.2821 23.4618 24.9549 23.6253 24.7356 23.9967C24.2776 24.0621 23.8194 24.1277 23.3614 24.193C23.5475 24.2878 23.7438 24.3204 23.9503 24.2912C23.9837 24.5507 23.9183 24.7798 23.754 24.9783C23.9747 25.143 24.1056 25.3721 24.1467 25.6654C24.1696 26.3148 24.0387 26.3802 23.754 25.8617C23.0925 26.3109 23.0271 26.1799 23.5577 25.4691C23.2069 25.3089 22.8796 25.1126 22.5761 24.8801C22.3798 24.9455 22.2489 25.0764 22.1835 25.2728C22.4169 25.4551 22.6786 25.5205 22.9688 25.4691C22.9835 26.0003 23.0489 26.5239 23.1651 27.0396C22.9931 27.0139 22.8622 27.0792 22.7725 27.2359C23.1602 27.4811 23.2257 27.7756 22.9688 28.1193C23.3125 27.8945 23.6724 27.7964 24.0485 27.8248C24.1467 27.923 24.2448 28.0212 24.343 28.1193C24.1787 28.3178 24.1133 28.5469 24.1467 28.8064C23.9503 28.8064 23.754 28.8064 23.5577 28.8064C23.5018 29.1574 23.5671 29.4847 23.754 29.788C24.0116 29.5995 24.2735 29.6321 24.5393 29.8861C24.3153 30.0316 24.3153 30.1953 24.5393 30.3769C24.2417 30.7482 23.9798 31.1408 23.754 31.5548C23.4354 31.3603 23.2391 31.4912 23.1651 31.9474C23.3887 32.3197 23.2579 32.516 22.7725 32.5364C22.3942 33.1461 21.9688 33.7351 21.4964 34.3032C21.359 33.6493 21.1299 33.0604 20.8093 32.5364C21.04 32.5794 21.2363 32.514 21.3983 32.3401C20.836 30.8308 20.5088 30.9618 20.4167 32.7327C20.155 32.7327 19.8931 32.7327 19.6314 32.7327C19.6314 32.9944 19.6314 33.2563 19.6314 33.518C19.3126 33.4905 19.0837 33.6214 18.9443 33.9106C18.879 33.3216 18.8134 32.7327 18.748 32.1438C18.206 31.9476 17.9443 31.555 17.9628 30.9659C17.7875 31.2036 17.6239 31.2036 17.472 30.9659C17.7992 30.7696 18.0609 30.5079 18.2572 30.1806C18.1542 30.0448 18.0232 29.9466 17.8646 29.8861C18.0531 29.1539 18.1184 28.4014 18.0609 27.6285C17.7992 27.6285 17.5373 27.6285 17.2757 27.6285C16.9107 27.6362 16.649 27.4727 16.4904 27.1377C16.6624 26.6713 16.9894 26.3768 17.472 26.2543C16.5866 25.8213 15.6705 25.4286 14.7236 25.0764C15.3445 24.9147 15.6717 24.522 15.7051 23.8986C16.2629 24.4041 16.819 24.4041 17.3738 23.8986C17.5798 24.214 17.8742 24.3448 18.2572 24.2912C18.2142 24.0605 18.2796 23.8642 18.4535 23.7022C18.7152 23.8332 18.9771 23.9639 19.2388 24.0949C19.3662 24.5118 19.5299 24.9045 19.7296 25.2728C19.7624 25.1746 19.795 25.0764 19.8277 24.9783C19.7037 24.4306 19.6711 23.8744 19.7296 23.3096C19.55 23.4722 19.4192 23.6685 19.337 23.8986C19.0562 23.4125 18.6964 22.9873 18.2572 22.6225C18.9286 22.6488 19.5176 22.3871 20.0241 21.8373C19.7798 21.7477 19.6163 21.8459 19.5333 22.1317C19.4273 21.8108 19.5254 21.5491 19.8277 21.3465C19.6878 20.8997 19.5896 20.4417 19.5333 19.9723C19.3536 20.1348 19.2229 20.3311 19.1406 20.5612C19.0594 20.4715 18.9612 20.4059 18.8462 20.3649C18.6402 20.8714 18.5093 21.3948 18.4535 21.9354C17.8087 21.9709 17.2197 22.1673 16.6867 22.5244C16.4798 22.489 16.2835 22.4236 16.0978 22.328C15.7051 22.6553 15.3125 22.9824 14.9199 23.3096C14.8545 23.2442 14.789 23.1787 14.7236 23.1133C15.2342 22.545 15.1033 22.4142 14.3309 22.7207C14.4774 22.9633 14.5428 23.2252 14.5273 23.5059C13.8852 23.4708 13.558 23.1109 13.5457 22.4262C13.5741 22.2746 13.6395 22.1437 13.742 22.0336C13.214 22.0077 12.7559 22.1386 12.3678 22.4262C12.789 22.0693 12.789 21.7748 12.3678 21.5428C12.5937 21.3011 12.8227 21.3011 13.0549 21.5428C13.1012 21.0891 13.2648 20.6965 13.5457 20.3649C13.9448 20.453 14.272 20.6494 14.5273 20.9538C14.327 21.3331 14.2943 21.7257 14.4291 22.1317C14.478 21.9111 14.5762 21.7148 14.7236 21.5428C15.3759 21.7895 16.0302 21.7895 16.6867 21.5428C16.4354 21.1105 16.4354 20.6853 16.6867 20.2667C16.4095 19.9161 16.0823 19.6216 15.7051 19.3833C15.5743 19.4487 15.4434 19.5143 15.3125 19.5796C15.2001 19.2699 15.1347 18.9754 15.1162 18.6962C15.3025 18.5751 15.4661 18.6077 15.607 18.7944C15.8015 18.5119 16.0632 18.3156 16.3922 18.2054C16.4983 18.5264 16.4001 18.7881 16.0978 18.9907C16.3604 19.5504 16.7531 19.9102 17.2757 20.0704C17.0309 19.7842 17.0309 19.4897 17.2757 19.187C17.1447 18.9253 17.014 18.6634 16.883 18.4018C17.2965 17.7184 17.3618 16.9987 17.0793 16.2423C16.6135 16.3982 16.1555 16.5945 15.7051 16.8312C15.4402 16.5466 15.113 16.4156 14.7236 16.4386C14.7685 16.0591 14.932 15.7319 15.2144 15.457C15.4659 15.4804 15.6949 15.3822 15.9015 15.1626C15.7538 15.0309 15.6883 14.8673 15.7051 14.6718C15.8553 14.5887 16.0189 14.5232 16.1959 14.4755C16.9686 15.2547 17.7539 15.2547 18.5517 14.4755C18.4783 14.9208 18.4783 15.3789 18.5517 15.8497C18.6171 15.6534 18.6826 15.457 18.748 15.2607C18.9779 15.7205 19.207 16.1787 19.4351 16.6349C19.571 16.5319 19.6691 16.4009 19.7296 16.2423C19.795 16.3077 19.8605 16.3732 19.9259 16.4386C19.7337 16.0894 19.7991 15.7623 20.1222 15.457C20.2604 15.8942 20.4895 15.9596 20.8093 15.6534Z" fill="#2D2D2D"/>
<path fill-rule="evenodd" clip-rule="evenodd" d="M13.5457 20.3649C13.2648 20.6965 13.1012 21.0891 13.0549 21.5428C12.8227 21.3011 12.5937 21.3011 12.3678 21.5428C12.789 21.7748 12.789 22.0693 12.3678 22.4262C12.7559 22.1386 13.214 22.0076 13.742 22.0335C13.6395 22.1437 13.5741 22.2746 13.5457 22.4262C13.558 23.1109 13.8852 23.4708 14.5273 23.5059C14.5111 23.8499 14.6747 24.0462 15.018 24.0949C15.2415 23.9989 15.4706 23.9335 15.7051 23.8985C15.6717 24.522 15.3445 24.9147 14.7236 25.0764C15.6705 25.4286 16.5866 25.8212 17.472 26.2543C16.9894 26.3768 16.6624 26.6713 16.4904 27.1377C16.649 27.4726 16.9107 27.6362 17.2757 27.6285C17.0909 28.0145 16.8946 28.4071 16.6867 28.8064C16.9484 29.2644 16.9484 29.7226 16.6867 30.1806C17.5782 31.4969 17.3819 31.7586 16.0978 30.9659C15.8361 31.0968 15.6397 31.2931 15.5088 31.5548C15.9525 31.9955 16.2144 32.5189 16.2941 33.1253C16.7521 33.1253 17.2103 33.1253 17.6683 33.1253C17.5185 33.8927 17.7802 34.1544 18.4535 33.9106C18.6275 34.0725 18.6928 34.2688 18.6499 34.4995C18.3964 34.453 18.2001 34.5184 18.0609 34.6958C17.1838 35.6083 16.1041 36.0663 14.8217 36.07C13.8946 35.9811 13.0112 35.752 12.1715 35.3829C11.6888 34.9027 11.2308 34.412 10.7973 33.9106C10.488 34.0982 10.1608 34.2292 9.81572 34.3032C9.52128 34.0896 9.25954 33.8279 9.03046 33.5179C8.88307 33.6899 8.78491 33.8862 8.73599 34.1069C8.69629 33.7622 8.59814 33.4351 8.44152 33.1253C8.05631 33.3911 7.85999 33.2602 7.85257 32.7327C7.99084 32.3332 8.12172 31.9406 8.2452 31.5548C7.78889 31.5866 7.46169 31.8155 7.26363 32.2419C7.4046 32.725 7.53547 33.2158 7.65626 33.7143C7.48429 33.8617 7.28797 33.9598 7.06732 34.0087C7.13275 34.0741 7.1982 34.1397 7.26363 34.205C6.75414 34.3228 6.29606 34.2247 5.88943 33.9106C5.47831 33.1163 5.282 32.2657 5.30049 31.3585C4.77293 31.3907 4.24942 31.3579 3.72997 31.2603C3.44059 30.4474 2.88437 29.8912 2.0613 29.5917C1.93352 28.6507 2.03168 27.7347 2.35577 26.8433C2.7752 26.5906 3.23328 26.4269 3.72997 26.3525C3.13234 26.282 3.0669 26.151 3.53366 25.9598C3.16506 25.5405 2.70698 25.246 2.15946 25.0764C3.6966 24.4188 3.6966 24.1243 2.15946 24.193C2.37902 23.9822 2.57533 23.7533 2.7484 23.5059C3.43075 23.6192 4.08513 23.8155 4.71155 24.0949C4.96962 24.3687 4.90417 24.565 4.51523 24.6838C4.17873 24.4661 4.04785 24.597 4.1226 25.0764C4.07934 25.6457 4.2102 26.1693 4.51523 26.6469C4.71155 26.1234 4.90786 26.1234 5.10417 26.6469C4.62442 26.9989 4.72258 27.1952 5.39865 27.2359C5.66663 27.1683 5.89567 27.0374 6.08575 26.8433C6.15118 26.9086 6.21663 26.9742 6.28206 27.0396C6.18907 27.6766 6.18907 28.3311 6.28206 29.0027C6.55168 28.9719 6.81344 29.0047 7.06732 29.1009C7.36666 29.4529 7.62842 29.8127 7.85257 30.1806C8.20902 30.4007 8.60165 30.4988 9.03046 30.4751C9.39735 29.8916 9.78998 29.3355 10.2083 28.8064C10.5511 29.2685 11.0092 29.4648 11.5825 29.3953C11.5825 29.1337 11.5825 28.8718 11.5825 28.6101C10.4436 28.6535 9.65831 28.1301 9.22677 27.0396C9.49981 26.5474 9.89244 26.2203 10.4047 26.058C10.3392 25.6654 10.2738 25.2727 10.2083 24.8801C10.4149 24.9094 10.6112 24.8768 10.7973 24.782C10.5661 24.5921 10.3043 24.494 10.012 24.4875C10.2454 24.3051 10.5072 24.2397 10.7973 24.2912C10.7227 23.3679 10.919 22.5173 11.3862 21.7391C10.6015 20.8221 10.6342 19.9713 11.4844 19.187C11.6448 17.4098 11.9393 17.4098 12.3678 19.187C12.901 19.4585 13.2936 19.8511 13.5457 20.3649Z" fill="#2D2D2D"/>
<path fill-rule="evenodd" clip-rule="evenodd" d="M5.6931 20.1686C5.84801 20.2241 5.9789 20.3223 6.08573 20.4631C5.8849 21.0076 5.8849 21.5638 6.08573 22.1317C6.36656 22.1162 6.6283 22.1816 6.87099 22.328C7.12095 22.4766 7.12095 22.6074 6.87099 22.7207C6.72886 23.0579 6.59799 23.418 6.47836 23.8004C6.73041 23.9347 6.95943 23.9019 7.16546 23.7022C7.33476 24.0138 7.46564 24.341 7.55809 24.6838C7.65287 24.4977 7.68559 24.3014 7.65624 24.0949C7.92586 24.064 8.18763 24.0968 8.4415 24.193C8.11254 24.4241 7.85077 24.7186 7.65624 25.0764C7.49429 25.2504 7.29797 25.3157 7.0673 25.2728C7.07739 25.6791 6.94651 26.039 6.67467 26.3525C6.99092 26.7863 7.1218 27.2771 7.0673 27.8248C7.32905 27.8248 7.59081 27.8248 7.85256 27.8248C7.79384 27.3394 7.59753 26.9139 7.26362 26.5488C7.32905 26.4506 7.3945 26.3525 7.45993 26.2543C8.08244 26.3537 8.5405 26.6807 8.83413 27.2359C8.58937 27.5386 8.58937 27.8331 8.83413 28.1193C8.69858 28.3288 8.60042 28.5579 8.53966 28.8064C8.34984 28.5752 8.25169 28.3135 8.24519 28.0212C8.10926 28.1242 8.0111 28.2552 7.95072 28.4138C7.85295 28.9992 7.82025 29.5881 7.85256 30.1806C7.62841 29.8127 7.36664 29.4529 7.0673 29.1009C6.81343 29.0047 6.55166 28.9719 6.28204 29.0027C6.18905 28.3311 6.18905 27.6766 6.28204 27.0396C6.21661 26.9742 6.15116 26.9086 6.08573 26.8433C5.89566 27.0374 5.66662 27.1684 5.39863 27.2359C4.72256 27.1953 4.62441 26.9989 5.10416 26.647C4.90785 26.1234 4.71153 26.1234 4.51522 26.647C4.21018 26.1693 4.07932 25.6458 4.12259 25.0764C4.62568 25.0668 5.14919 25.0994 5.6931 25.1746C5.51092 25.0984 5.38006 24.9675 5.30047 24.782C5.33212 24.1088 5.39755 23.4545 5.49679 22.8188C5.43136 22.6553 5.36591 22.4916 5.30047 22.328C4.94522 23.11 4.74891 23.0444 4.71153 22.1317C4.58253 21.3445 4.90971 21.0174 5.6931 21.1502C5.6931 20.8229 5.6931 20.4958 5.6931 20.1686Z" fill="#2D2D2D"/>
<path fill-rule="evenodd" clip-rule="evenodd" d="M30.8213 6.23024C32.4596 6.42891 33.3758 7.34505 33.5697 8.97864C33.3889 9.59059 33.2252 10.1795 33.079 10.7455C35.4997 11.726 36.4159 13.4928 35.8274 16.046C35.4865 16.9239 34.9958 17.7091 34.355 18.4017C35.7225 19.8776 36.0826 21.5791 35.4347 23.5059C35.0354 24.1751 34.5446 24.7641 33.9624 25.2727C34.1597 26.0939 34.4541 26.8792 34.8458 27.6285C35.1546 28.9424 34.7292 29.9566 33.5697 30.6714C32.8766 30.9833 32.1567 31.2122 31.4103 31.3585C30.5357 34.5763 28.6381 35.3615 25.7172 33.7143C25.248 34.9029 24.3972 35.6882 23.1651 36.07C22.9056 36.1034 22.6765 36.038 22.478 35.8737C22.1961 35.3549 22.1635 34.8313 22.3798 34.3032C22.507 34.6269 22.7034 34.8886 22.9688 35.0885C23.2519 34.4432 23.1209 33.887 22.5761 33.4198C22.7348 33.3593 22.8657 33.2612 22.9688 33.1253C22.8457 32.9453 22.7801 32.749 22.7725 32.5364C23.2579 32.516 23.3887 32.3196 23.1651 31.9474C23.2391 31.4912 23.4354 31.3603 23.754 31.5548C23.9798 31.1408 24.2417 30.7481 24.5393 30.3769C24.3153 30.1953 24.3153 30.0316 24.5393 29.8861C24.2735 29.6321 24.0116 29.5995 23.754 29.788C23.5671 29.4847 23.5018 29.1574 23.5577 28.8064C23.754 28.8064 23.9503 28.8064 24.1467 28.8064C24.1133 28.5469 24.1787 28.3178 24.343 28.1193C24.2448 28.0211 24.1467 27.923 24.0485 27.8248C23.6724 27.7964 23.3125 27.8945 22.9688 28.1193C23.2257 27.7755 23.1602 27.4811 22.7725 27.2359C22.8622 27.0792 22.9931 27.0138 23.1651 27.0396C23.5848 26.9997 23.9121 26.8034 24.1467 26.4506C24.2776 25.9271 24.4083 25.4037 24.5393 24.8801C24.6665 24.5564 24.8628 24.2947 25.1282 24.0949C25.2552 24.6748 25.288 25.2637 25.2264 25.8617C25.3573 25.7307 25.4881 25.6 25.619 25.4691C26.3102 25.6153 26.9973 25.6807 27.6803 25.6654C28.1766 25.4657 28.1766 25.2366 27.6803 24.9783C27.9781 24.4337 28.3052 23.9101 28.6619 23.4078C28.5514 22.5874 28.486 21.7693 28.4656 20.9538C28.2693 20.9538 28.0729 20.9538 27.8766 20.9538C27.9188 20.5074 28.0498 20.082 28.2693 19.6778C28.1984 19.197 28.0674 18.739 27.8766 18.3036C27.9744 18.0762 28.1379 17.9127 28.3674 17.8128C28.5164 18.0378 28.6474 18.2341 28.76 18.4017C29.0005 18.3307 29.2294 18.2325 29.4471 18.1073C28.813 17.7688 28.7475 17.3762 29.2508 16.9294C29.1947 15.9686 29.1291 15.0198 29.0545 14.0828C29.3319 13.691 29.5936 13.2656 29.8398 12.8068C29.7226 12.5983 29.6572 12.3693 29.6435 12.1197C29.7652 11.4286 29.9615 10.7743 30.2324 10.1565C30.0361 10.1565 29.8398 10.1565 29.6435 10.1565C29.697 9.77352 29.5663 9.47905 29.2508 9.27311C29.3818 9.20768 29.5125 9.14223 29.6435 9.0768C29.2546 8.95795 29.189 8.76164 29.4471 8.48786C29.2367 8.23585 28.975 8.1704 28.6619 8.29154C28.9147 7.80733 28.9147 7.31655 28.6619 6.81918C28.7298 6.58447 28.828 6.58447 28.9564 6.81918C28.9573 6.2834 29.1862 5.89077 29.6435 5.6413C29.9018 6.13758 30.1309 6.13758 30.3306 5.6413C30.3769 5.95919 30.5404 6.1555 30.8213 6.23024Z" fill="#2D2D2D"/>
<path fill-rule="evenodd" clip-rule="evenodd" d="M9.8157 34.3033C9.43992 34.6539 8.98186 34.8502 8.4415 34.8922C7.76228 34.6117 7.04247 34.4482 6.28205 34.4014C6.10919 34.2624 5.97831 34.0987 5.88942 33.9106C6.29605 34.2247 6.75412 34.3229 7.26362 34.2051C7.19819 34.1397 7.13274 34.0742 7.06731 34.0088C7.28796 33.9599 7.48428 33.8618 7.65625 33.7143C7.53546 33.2159 7.40459 32.7251 7.26362 32.242C7.46168 31.8156 7.78888 31.5867 8.24519 31.5549C8.12171 31.9406 7.99083 32.3333 7.85256 32.7328C7.85998 33.2603 8.0563 33.3912 8.4415 33.1254C8.59812 33.4352 8.69628 33.7622 8.73598 34.107C8.7849 33.8863 8.88305 33.69 9.03045 33.518C9.25953 33.828 9.52127 34.0897 9.8157 34.3033Z" fill="#2D2D2D"/>
<path fill-rule="evenodd" clip-rule="evenodd" d="M17.2756 27.6286C17.5373 27.6286 17.7992 27.6286 18.0609 27.6286C18.1184 28.4015 18.0531 29.154 17.8646 29.8862C18.0232 29.9467 18.1542 30.0448 18.2572 30.1807C18.0609 30.5079 17.7992 30.7696 17.472 30.9659C17.6239 31.2037 17.7874 31.2037 17.9627 30.9659C17.9443 31.5551 18.206 31.9477 18.748 32.1438C18.8134 32.7328 18.8789 33.3217 18.9443 33.9107C19.0837 33.6215 19.3126 33.4905 19.6314 33.518C19.6314 33.2563 19.6314 32.9945 19.6314 32.7328C19.8931 32.7328 20.155 32.7328 20.4167 32.7328C20.5087 30.9618 20.836 30.8309 21.3982 32.3401C21.2363 32.5141 21.04 32.5795 20.8093 32.5365C21.1299 33.0604 21.359 33.6494 21.4964 34.3033C21.9687 33.7352 22.3941 33.1462 22.7724 32.5365C22.7801 32.7491 22.8457 32.9454 22.9688 33.1254C22.8657 33.2613 22.7348 33.3594 22.5761 33.4199C23.1209 33.8871 23.2518 34.4433 22.9688 35.0885C22.7033 34.8887 22.507 34.627 22.3798 34.3033C22.1635 34.8314 22.1961 35.3549 22.478 35.8738C22.6764 36.0381 22.9055 36.1035 23.1651 36.0701C23.1433 36.1912 23.0779 36.2894 22.9688 36.3646C22.1835 36.4955 21.3982 36.4955 20.613 36.3646C19.6768 35.8993 18.8261 35.343 18.0609 34.6959C18.2001 34.5185 18.3964 34.4531 18.6498 34.4996C18.6928 34.2689 18.6275 34.0726 18.4535 33.9107C17.7802 34.1545 17.5185 33.8928 17.6683 33.1254C17.2103 33.1254 16.7521 33.1254 16.2941 33.1254C16.2144 32.519 15.9525 31.9956 15.5088 31.5549C15.6397 31.2932 15.8361 31.0969 16.0978 30.9659C17.3819 31.7587 17.5782 31.497 16.6867 30.1807C16.9484 29.7227 16.9484 29.2645 16.6867 28.8065C16.8946 28.4072 17.0909 28.0146 17.2756 27.6286Z" fill="#2D2D2D"/>
</svg>
